<svg width="33" height="32" viewBox="0 0 33 32" fill="none" xmlns="http://www.w3.org/2000/svg">
<path d="M30.8721 1.63069C29.8258 0.586464 28.408 0 26.9299 0C25.4517 0 24.0339 0.586464 22.9877 1.63069L12.539 12.0801C12.4041 12.2147 12.3022 12.3789 12.2416 12.5596L9.16843 21.7797C9.09603 21.9962 9.08536 22.2287 9.13763 22.4509C9.18989 22.6732 9.30302 22.8765 9.46434 23.0381C9.62566 23.1997 9.82878 23.3131 10.051 23.3658C10.2731 23.4184 10.5056 23.4081 10.7222 23.336L19.9416 20.2627C20.1232 20.2023 20.2882 20.1005 20.4235 19.9652L30.8721 9.51572C31.9162 8.46936 32.5027 7.05147 32.5027 5.57321C32.5027 4.09494 31.9162 2.67705 30.8721 1.63069ZM27.5113 16.3533C27.5326 16.6484 27.5433 16.9475 27.5433 17.2508C27.5431 19.7204 26.7992 22.1327 25.4084 24.1735C24.0176 26.2142 22.0445 27.7887 19.7461 28.6919C17.4477 29.595 14.9306 29.7849 12.5227 29.2368C10.1148 28.6887 7.92785 27.4281 6.24669 25.6191C4.56553 23.8101 3.46814 21.5367 3.0975 19.095C2.72686 16.6534 3.10016 14.1567 4.16876 11.9302C5.23736 9.70377 6.95171 7.85082 9.08845 6.61277C11.2252 5.37472 13.6853 4.80898 16.1481 4.98927L18.3214 2.81824C15.2098 2.1566 11.9677 2.51869 9.07862 3.85051C6.18958 5.18232 3.80847 7.41249 2.29045 10.2083C0.772433 13.0042 0.198863 16.2159 0.655295 19.3644C1.11173 22.513 2.5737 25.4296 4.82314 27.6792C7.07259 29.9288 9.98896 31.3909 13.1372 31.8474C16.2855 32.3038 19.497 31.7302 22.2926 30.2121C25.0883 28.6939 27.3183 26.3126 28.65 23.4234C29.9817 20.5341 30.3438 17.2917 29.6822 14.1799L27.5113 16.3533Z" fill="#230616"/>
</svg>
