<svg width="32" height="32" viewBox="0 0 32 32" fill="none" xmlns="http://www.w3.org/2000/svg">
<path d="M7.10733 22.4V25.0419C7.10733 25.2403 7.07332 25.4328 7.00531 25.6193C6.9373 25.8059 6.83528 25.9731 6.69925 26.1209L2.27843 30.9581C2.02905 31.231 1.71165 31.3674 1.32625 31.3674C0.940843 31.3674 0.62345 31.231 0.37407 30.9581C0.12469 30.6853 0 30.338 0 29.9163C0 29.4946 0.12469 29.1473 0.37407 28.8744L4.38682 24.4837L2.89054 20.093C2.73184 19.6465 2.69784 19.132 2.78852 18.5496C2.87921 17.9671 3.13992 17.4398 3.57067 16.9674L8.05951 12.0558C8.33156 11.7581 8.62628 11.5349 8.94368 11.3861C9.26107 11.2372 9.61247 11.1628 9.99787 11.1628C10.3833 11.1628 10.7347 11.2372 11.0521 11.3861C11.3695 11.5349 11.6642 11.7581 11.9362 12.0558L14.6567 14.9581C15.2689 15.6279 16.017 16.1553 16.9012 16.5403C17.7853 16.9253 18.7375 17.1173 19.7577 17.1163V20.093C18.3974 20.093 17.1279 19.8574 15.949 19.386C14.7701 18.9147 13.7499 18.2078 12.8884 17.2651L11.9362 16.2233L8.73964 19.7209L11.2221 22.4744C11.3355 22.5984 11.4261 22.7537 11.4942 22.9403C11.5622 23.1268 11.5962 23.3188 11.5962 23.5163V30.5116C11.5962 30.9333 11.466 31.2871 11.2058 31.5728C10.9455 31.8586 10.6222 32.001 10.2359 32C9.8496 31.999 9.52677 31.8561 9.26741 31.5713C9.00806 31.2866 8.87748 30.9333 8.87566 30.5116V24.186L7.10733 22.4ZM22.4782 23.814V30.5116C22.4782 30.9333 22.3476 31.2871 22.0865 31.5728C21.8253 31.8586 21.5025 32.001 21.118 32C20.7335 31.999 20.4106 31.8561 20.1495 31.5713C19.8883 31.2866 19.7577 30.9333 19.7577 30.5116V22.214C19.7577 22.0155 19.7917 21.8235 19.8597 21.638C19.9277 21.4524 20.0298 21.2847 20.1658 21.1349L22.6142 18.6047L21.7981 13.3954C21.458 13.8419 21.0839 14.2388 20.6759 14.586C20.2678 14.9333 19.8257 15.2558 19.3496 15.5535C18.6015 15.5039 17.8928 15.3302 17.2235 15.0326C16.5543 14.7349 15.9934 14.338 15.5409 13.8419C16.5611 13.6434 17.4625 13.2649 18.2451 12.7062C19.0277 12.1476 19.6679 11.4347 20.1658 10.5674L21.526 8.18605C21.9114 7.51629 22.4442 7.06332 23.1243 6.82717C23.8045 6.59101 24.4732 6.62227 25.1307 6.92094L31.1838 9.74884C31.4332 9.87287 31.6318 10.053 31.7796 10.2891C31.9274 10.5253 32.0009 10.7917 32 11.0884V15.6279C32 16.0496 31.8694 16.4034 31.6082 16.6891C31.3471 16.9749 31.0242 17.1173 30.6397 17.1163C30.2552 17.1153 29.9324 16.9724 29.6712 16.6876C29.4101 16.4029 29.2795 16.0496 29.2795 15.6279V12.0558L26.831 11.014L30.2997 30.1767C30.3904 30.6481 30.2938 31.0698 30.0099 31.4419C29.7261 31.8139 29.3466 32 28.8714 32C28.554 32 28.2647 31.8943 28.0036 31.683C27.7424 31.4716 27.5783 31.1928 27.5111 30.8465L25.3347 20.8372L22.4782 23.814ZM14.9968 11.907C14.2487 11.907 13.6084 11.6158 13.0761 11.0333C12.5438 10.4509 12.2772 9.74983 12.2763 8.93024C12.2754 8.11064 12.542 7.41011 13.0761 6.82866C13.6103 6.2472 14.2505 5.95548 14.9968 5.9535C15.7431 5.95151 16.3838 6.24323 16.9188 6.82866C17.4539 7.41408 17.72 8.11461 17.7173 8.93024C17.7146 9.74587 17.4484 10.4469 16.9188 11.0333C16.3893 11.6197 15.7486 11.911 14.9968 11.907ZM21.7981 5.9535C21.0499 5.9535 20.4097 5.66227 19.8774 5.07982C19.3451 4.49737 19.0785 3.79635 19.0776 2.97675C19.0767 2.15716 19.3433 1.45663 19.8774 0.875172C20.4115 0.293715 21.0518 0.00199455 21.7981 1.00566e-05C22.5444 -0.00197444 23.1851 0.289746 23.7201 0.875172C24.2552 1.4606 24.5213 2.16113 24.5186 2.97675C24.5159 3.79238 24.2497 4.4934 23.7201 5.07982C23.1905 5.66624 22.5498 5.95746 21.7981 5.9535Z" fill="#230616"/>
</svg>
