<svg width="34" height="34" viewBox="0 0 34 34" fill="none" xmlns="http://www.w3.org/2000/svg">
<path d="M1 29C1 26.8783 1.84285 24.8434 3.34315 23.3431C4.84344 21.8429 6.87827 21 9 21H25C27.1217 21 29.1566 21.8429 30.6569 23.3431C32.1571 24.8434 33 26.8783 33 29C33 30.0609 32.5786 31.0783 31.8284 31.8284C31.0783 32.5786 30.0609 33 29 33H5C3.93913 33 2.92172 32.5786 2.17157 31.8284C1.42143 31.0783 1 30.0609 1 29Z" fill="#230616"/>
<path d="M17 13C20.3137 13 23 10.3137 23 7C23 3.68629 20.3137 1 17 1C13.6863 1 11 3.68629 11 7C11 10.3137 13.6863 13 17 13Z" fill="#230616"/>
<path d="M1 29L0 29L1 29ZM3.34315 23.3431L4.05025 24.0503L4.05025 24.0503L3.34315 23.3431ZM9 21L9 20L9 21ZM25 21V20V21ZM30.6569 23.3431L29.9497 24.0503L29.9497 24.0503L30.6569 23.3431ZM31.8284 31.8284L32.5355 32.5355L32.5355 32.5355L31.8284 31.8284ZM2.17157 31.8284L1.46447 32.5355L1.46447 32.5355L2.17157 31.8284ZM1 29H2C2 27.1435 2.7375 25.363 4.05025 24.0503L3.34315 23.3431L2.63604 22.636C0.948211 24.3239 0 26.6131 0 29H1ZM3.34315 23.3431L4.05025 24.0503C5.36301 22.7375 7.14348 22 9 22L9 21L9 20C6.61305 20 4.32387 20.9482 2.63604 22.636L3.34315 23.3431ZM9 21V22H25V21V20H9V21ZM25 21V22C26.8565 22 28.637 22.7375 29.9497 24.0503L30.6569 23.3431L31.364 22.636C29.6761 20.9482 27.3869 20 25 20V21ZM30.6569 23.3431L29.9497 24.0503C31.2625 25.363 32 27.1435 32 29H33H34C34 26.6131 33.0518 24.3239 31.364 22.636L30.6569 23.3431ZM33 29H32C32 29.7957 31.6839 30.5587 31.1213 31.1213L31.8284 31.8284L32.5355 32.5355C33.4732 31.5979 34 30.3261 34 29H33ZM31.8284 31.8284L31.1213 31.1213C30.5587 31.6839 29.7957 32 29 32V33V34C30.3261 34 31.5979 33.4732 32.5355 32.5355L31.8284 31.8284ZM29 33V32H5V33V34H29V33ZM5 33V32C4.20435 32 3.44129 31.6839 2.87868 31.1213L2.17157 31.8284L1.46447 32.5355C2.40215 33.4732 3.67392 34 5 34V33ZM2.17157 31.8284L2.87868 31.1213C2.31607 30.5587 2 29.7957 2 29L1 29L0 29C0 30.3261 0.526784 31.5979 1.46447 32.5355L2.17157 31.8284ZM17 13V14C20.866 14 24 10.866 24 7H23H22C22 9.76142 19.7614 12 17 12V13ZM23 7H24C24 3.13401 20.866 0 17 0V1V2C19.7614 2 22 4.23858 22 7H23ZM17 1V0C13.134 0 10 3.13401 10 7H11H12C12 4.23858 14.2386 2 17 2V1ZM11 7H10C10 10.866 13.134 14 17 14V13V12C14.2386 12 12 9.76142 12 7H11Z" fill="#230616"/>
</svg>
